<?xml version="1.0" encoding="utf-8"?>
<!-- Generator: Adobe Illustrator 26.5.0, SVG Export Plug-In . SVG Version: 6.00 Build 0)  -->
<svg version="1.1" id="Layer_1" xmlns="http://www.w3.org/2000/svg" xmlns:xlink="http://www.w3.org/1999/xlink" x="0px" y="0px"
	 viewBox="0 0 700 700" style="enable-background:new 0 0 700 700;" xml:space="preserve">
<g>
	<path d="M625.2,342.3c0-74.3-29.5-145.5-82-198c-52.5-52.5-123.7-82-198-82s-145.5,29.5-198,82c-52.5,52.5-82,123.7-82,198
		c0,49.1,12.9,97.4,37.5,140c24.6,42.6,59.9,77.9,102.5,102.5c42.6,24.6,90.9,37.5,140,37.5c74.3,0,145.5-29.5,198-82
		C595.7,487.8,625.2,416.5,625.2,342.3z M344.7,482.3c-6.1,0.1-11.9-2.3-16.2-6.6l-91.9-92.2c-5.7-5.7-7.9-14-5.9-21.8
		c2.1-7.8,8.2-13.9,15.9-16c7.8-2.1,16.1,0.1,21.8,5.8l54,54V224.7c0-8,4.3-15.4,11.2-19.4c6.9-4,15.5-4,22.4,0
		c6.9,4,11.2,11.4,11.2,19.4v181.4l54.5-54.5c5.7-5.7,14-7.9,21.8-5.8c7.8,2.1,13.9,8.2,16,16c2.1,7.8-0.1,16.1-5.8,21.8l-91.9,92.2
		c-4.2,4.2-10,6.6-16,6.6L344.7,482.3L344.7,482.3z"/>
</g>
</svg>
